<svg viewBox="0 0 2100 2970" preserveAspectRatio="xMidYMid slice" xmlns="http://www.w3.org/2000/svg">
    <g id="front cover" clip-path="url(#clip0_1064_7)">
        <rect id="background" width="2100" height="2970" fill="var(--magazine-background-color, #A8FFC8)" />
        <rect id="cover-art" x="-869.112" y="462.215" width="2623.8" height="2183"
            transform="rotate(-7.5 -869.112 462.215)" fill="#FFA8C8" />
        <rect id="black-gradient" x="-430.363" y="404.453" width="2181.26" height="2183"
            transform="rotate(-7.5 -430.363 404.453)" fill="url(#paint0_linear_1064_7)" />
        <g id="image-border">
            <g id="Mask group">
                <mask id="mask0_1064_7" style="mask-type:alpha" maskUnits="userSpaceOnUse" x="-417" y="237" width="2268"
                    height="2124">
                    <path id="Rectangle 19"
                        d="M1780.71 1836.75L1815.22 2098.84L-172.834 2360.58L-416.657 508.557L1641.58 237.585L1850.9 1827.51L1780.71 1836.75Z"
                        fill="#D9D9D9" />
                </mask>
                <g mask="url(#mask0_1064_7)">
                    <path id="Rectangle 13 (Stroke)"
                        d="M-172.834 2360.58L-416.657 508.557L1641.58 237.585L1885.41 2089.6L-172.834 2360.58ZM1631.25 251.048L-403.193 518.888L-162.503 2347.11L1871.94 2079.27L1631.25 251.048Z"
                        fill="#16161D" />
                </g>
            </g>
            <g id="Frame 1">
                <path id="Rectangle 14"
                    d="M1634.64 238.496L1733.79 225.444L1788.61 641.85L1689.46 654.903L1634.64 238.496Z"
                    fill="#16161D" />
                <g id="Vector">
                    <path d="M1747.73 423.316L1667.43 433.889L1656.85 353.582L1737.16 343.009L1747.73 423.316Z"
                        fill="#E60CF3" />
                </g>
                <path id="Rectangle 17"
                    d="M1774.9 537.749L1682.7 549.888L1668.99 445.786L1761.2 433.647L1774.9 537.749Z" fill="#16161D" />
                <g id="Vector_2">
                    <path d="M1775.14 631.52L1694.84 642.092L1684.26 561.785L1764.57 551.212L1775.14 631.52Z"
                        fill="#E60CF3" />
                </g>
            </g>
        </g>
        <g id="argama">
            <g id="Mask group_2">
                <mask id="mask1_1064_7" style="mask-type:alpha" maskUnits="userSpaceOnUse" x="1791" y="1766" width="260"
                    height="335">
                    <path id="Rectangle 20"
                        d="M1837.24 1775.51L1906.48 1766.39L2050.97 2091.02L1962.58 2094.31L1791.89 2100.84L1796.42 2037.24L1906.5 1996.94L1880.74 1893.52L1853.25 1897.13L1837.24 1775.51Z"
                        fill="#D9D9D9" />
                </mask>
                <g mask="url(#mask1_1064_7)">
                    <g id="ARGAMA (Stroke)">
                        <path id="Stroke"
                            d="M1871.18 1797.31L2029.15 2070.68L1938.01 2082.68L1915.11 2039.99L1831.67 2050.97L1820.41 2098.16L1729.28 2110.16L1811.52 1805.16L1871.18 1797.31ZM1821.02 1816.02L1746.17 2093.6L1808.73 2085.37L1819.36 2038.69L1924.57 2024.83L1946.2 2066.96L2005.32 2059.17L1861.63 1810.67L1821.02 1816.02ZM1894.61 1976.36L1835.27 1984.17L1854.83 1902.2L1894.61 1976.36ZM1850.99 1970L1875.82 1966.73L1859.18 1935.69L1850.99 1970Z"
                            fill="#16161D" />
                    </g>
                </g>
            </g>
            <g id="Mask group_3">
                <mask id="mask2_1064_7" style="mask-type:alpha" maskUnits="userSpaceOnUse" x="-417" y="183" width="2709"
                    height="2166">
                    <path id="Rectangle 12"
                        d="M2291.08 2024.09L-174.401 2348.68L-416.657 508.554L2048.83 183.967L2291.08 2024.09Z"
                        fill="#D9D9D9" />
                </mask>
                <g mask="url(#mask2_1064_7)">
                    <g id="ARGAMA">
                        <path id="Vector_3"
                            d="M1745.55 2095.91L1821.02 1816.02L1864.8 1810.25L2009.77 2061.13L1944.66 2069.7L1854.83 1902.2L1810.65 2087.34L1745.55 2095.91ZM1818.82 2040.56L1830.46 1984.8L1899.37 1975.73L1925.81 2026.48L1818.82 2040.56Z"
                            fill="var(--argama-text-color, #A8C8FF)" />
                        <path id="Vector_4"
                            d="M1436.73 2136.57L1401.79 1871.21L1488.98 1859.73L1573.75 2032.93L1563.09 2034.34L1600.15 1845.1L1687.33 1833.62L1722.26 2098.98L1662.49 2106.84L1636.78 1911.54L1642.64 1911.93L1605.27 2089.98L1547.4 2097.6L1465.23 1935.29L1470.79 1933.39L1496.5 2128.7L1436.73 2136.57Z"
                            fill="var(--argama-text-color, #A8C8FF)" />
                        <path id="Vector_5"
                            d="M1149.2 2174.42L1224.67 1894.53L1268.45 1888.76L1413.41 2139.64L1348.31 2148.21L1258.48 1980.71L1214.3 2165.85L1149.2 2174.42ZM1222.47 2119.07L1234.11 2063.32L1303.02 2054.24L1329.45 2104.99L1222.47 2119.07Z"
                            fill="var(--argama-text-color, #A8C8FF)" />
                        <path id="Vector_6"
                            d="M1006.46 2200.18C982.096 2203.39 959.627 2200.41 939.054 2191.24C918.735 2182.04 901.748 2167.75 888.095 2148.38C874.407 2128.75 865.726 2104.97 862.05 2077.05C858.375 2049.13 860.624 2024.05 868.798 2001.8C876.971 1979.55 890.062 1961.3 908.068 1947.05C926.074 1932.81 947.895 1923.99 973.529 1920.62C1002.72 1916.78 1028.81 1920.83 1051.82 1932.78C1074.79 1944.47 1092.53 1962.53 1105.04 1986.96L1051.35 2014.56C1044.41 2001.02 1034.83 1991.04 1022.63 1984.65C1010.64 1977.96 996.784 1975.65 981.048 1977.73C966.834 1979.6 954.832 1984.53 945.041 1992.54C935.503 2000.51 928.618 2010.97 924.384 2023.92C920.404 2036.84 919.55 2051.92 921.823 2069.18C924.095 2086.44 928.841 2100.92 936.063 2112.62C943.504 2124.04 952.862 2132.36 964.137 2137.59C975.666 2142.78 988.537 2144.45 1002.75 2142.58C1010.36 2141.57 1017.97 2139.54 1025.57 2136.47C1033.14 2133.15 1039.89 2128.52 1045.82 2122.57C1051.97 2116.34 1056.44 2108.14 1059.23 2097.96C1062.28 2087.74 1062.83 2075.28 1060.89 2060.56L1059.24 2047.99L1078.08 2088.12L1000.79 2098.29L993.777 2044.99L1110.66 2029.6L1130.05 2176.94L1077.51 2183.86L1064.23 2147.65L1075.61 2154.67C1071.76 2162.67 1066.52 2169.94 1059.89 2176.5C1053.49 2182.76 1045.77 2187.91 1036.75 2191.94C1027.98 2195.93 1017.88 2198.68 1006.46 2200.18Z"
                            fill="var(--argama-text-color, #A8C8FF)" />
                        <path id="Vector_7"
                            d="M660.427 2238.77L625.492 1973.41L718.767 1961.13C741.102 1958.19 759.43 1959.13 773.751 1963.96C788.038 1968.54 799.013 1976.39 806.675 1987.51C814.303 1998.39 819.153 2011.69 821.225 2027.43C824.633 2053.32 819.879 2074.08 806.963 2089.73C794.013 2105.12 774.296 2115.2 747.813 2119.98C740.706 2120.91 733.854 2121.82 727.254 2122.69C720.655 2123.55 715.452 2124.24 711.645 2124.74L706.315 2125.44L720.199 2230.9L660.427 2238.77ZM801.672 2220.17L721.834 2116.81L782.177 2101.51L870.962 2211.05L801.672 2220.17ZM699.298 2072.14L726.71 2068.53C733.055 2067.7 739.079 2066.39 744.783 2064.6C750.454 2062.57 754.942 2059.39 758.248 2055.09C761.521 2050.52 762.622 2044.18 761.553 2036.06C760.484 2027.94 757.812 2022.35 753.537 2019.3C749.228 2015.99 744.105 2014.34 738.167 2014.35C732.196 2014.1 726.038 2014.4 719.692 2015.23L692.281 2018.84L699.298 2072.14Z"
                            fill="var(--argama-text-color, #A8C8FF)" />
                        <path id="Vector_8"
                            d="M372.895 2276.62L448.367 1996.73L492.149 1990.97L637.111 2241.84L572.009 2250.41L482.177 2082.91L437.997 2268.05L372.895 2276.62ZM446.169 2221.27L457.807 2165.52L526.716 2156.45L553.15 2207.19L446.169 2221.27Z"
                            fill="var(--argama-text-color, #A8C8FF)" />
                    </g>
                </g>
            </g>
        </g>
        <g id="bams-box">
            <path id="B"
                d="M1669.42 320.155L1660.68 253.816L1685.43 250.558C1692.22 249.664 1697.75 250.453 1702.01 252.926C1706.27 255.399 1708.75 259.268 1709.44 264.535C1709.83 267.454 1709.6 270.13 1708.76 272.565C1707.92 275 1706.58 277.08 1704.74 278.807C1708.43 279.871 1711.25 281.662 1713.19 284.182C1715.19 286.63 1716.45 289.789 1716.96 293.659C1717.77 299.814 1716.44 304.927 1712.97 308.999C1709.57 313.061 1704.48 315.54 1697.69 316.434L1669.42 320.155ZM1682.56 304.482L1694.64 302.891C1700.1 302.172 1702.53 299.529 1701.93 294.96C1701.64 292.74 1700.68 291.122 1699.06 290.109C1697.51 289.087 1695.43 288.747 1692.83 289.09L1680.74 290.681L1682.56 304.482ZM1678.99 277.356L1688.79 276.066C1690.95 275.782 1692.56 275.021 1693.62 273.783C1694.68 272.483 1695.07 270.849 1694.82 268.882C1694.58 267.105 1693.8 265.82 1692.47 265.027C1691.2 264.226 1689.46 263.971 1687.24 264.263L1677.43 265.554L1678.99 277.356Z"
                fill="#26C9FF" />
            <path id="A"
                d="M1674.04 425.452L1692.91 355.479L1703.86 354.038L1740.1 416.756L1723.82 418.899L1701.36 377.024L1690.32 423.31L1674.04 425.452ZM1692.36 411.615L1695.27 397.676L1712.5 395.408L1719.11 408.094L1692.36 411.615Z"
                fill="#16161D" />
            <path id="M"
                d="M1684.93 529.925L1676.2 463.585L1697.99 460.716L1719.19 504.016L1716.52 504.367L1725.79 457.057L1747.58 454.188L1756.32 520.527L1741.37 522.494L1734.94 473.668L1736.41 473.765L1727.07 518.277L1712.6 520.182L1692.06 479.605L1693.45 479.131L1699.87 527.958L1684.93 529.925Z"
                fill="#26C9FF" />
            <path id="S"
                d="M1735.15 630.924C1727.79 631.893 1721.51 630.783 1716.32 627.594C1711.12 624.405 1707.59 619.705 1705.74 613.493L1719.83 607.959C1721.03 611.675 1722.83 614.342 1725.24 615.962C1727.7 617.509 1730.59 618.066 1733.89 617.632C1735.53 617.414 1736.96 616.968 1738.16 616.294C1739.43 615.611 1740.38 614.711 1741 613.596C1741.63 612.48 1741.85 611.225 1741.67 609.829C1741.5 608.56 1740.98 607.499 1740.09 606.648C1739.19 605.733 1737.83 604.944 1736 604.281C1734.16 603.555 1731.74 602.84 1728.75 602.138C1724.01 600.954 1720.08 599.567 1716.97 597.976C1713.84 596.321 1711.45 594.281 1709.77 591.855C1708.1 589.429 1707.04 586.534 1706.59 583.171C1706.11 579.491 1706.57 576.138 1707.98 573.112C1709.44 570.014 1711.69 567.459 1714.72 565.447C1717.8 563.363 1721.5 562.037 1725.81 561.469C1730.45 560.859 1734.68 561.399 1738.52 563.088C1742.41 564.706 1745.72 567.53 1748.44 571.561L1737.5 580.361C1736 578.299 1734.35 576.805 1732.55 575.88C1730.81 574.884 1728.98 574.511 1727.08 574.761C1725.94 574.912 1724.92 575.271 1724.03 575.841C1723.13 576.41 1722.45 577.145 1721.99 578.045C1721.52 578.882 1721.36 579.839 1721.5 580.918C1721.64 581.997 1722.09 582.97 1722.85 583.839C1723.68 584.698 1725.04 585.519 1726.95 586.3C1728.85 587.018 1731.47 587.771 1734.8 588.559C1739.26 589.586 1742.98 590.871 1745.96 592.416C1749 593.952 1751.39 595.897 1753.12 598.251C1754.84 600.542 1755.93 603.432 1756.39 606.922C1756.93 610.983 1756.39 614.734 1754.77 618.174C1753.22 621.542 1750.75 624.352 1747.36 626.605C1744.04 628.85 1739.97 630.289 1735.15 630.924Z"
                fill="#16161D" />
        </g>
        <g id="image-artist">
            <rect id="artist-bg" x="1841" y="2195.77" width="503" height="105" transform="rotate(172.5 1837.07 2195.77)"
                fill="#16161D" />

            <!-- Changed Y from 2192.69 to 2145.00 to move it "upward" (visually) into the flipped box -->
            <text id="artist-text-container" transform="translate(1810 2120.00) rotate(-7.5)" fill="white"
                style="white-space: pre" xml:space="preserve" font-family="Ramabhadra" font-size="48"
                letter-spacing="0em" text-anchor="end">
                <tspan id="artist-tspan" x="0" y="42.1301">Illustration: [ARTIST]</tspan>
            </text>
        </g>
    </g>
    <g id="prod-iridescent">
        <path id="Vector_9"
            d="M1715.4 198.613L1710.19 159.019L1703.72 159.871L1702.79 152.828L1722.59 150.221L1723.52 157.265L1717.04 158.117L1722.26 197.711L1715.4 198.613Z"
            fill="white" />
        <path id="Vector_10"
            d="M1677.87 203.555L1671.73 156.917L1678.14 156.073L1687.68 179.54L1688.54 181.622L1688.92 181.572L1685.43 155.113L1691.72 154.286L1697.86 200.923L1692.08 201.683L1681.9 178.3L1681.05 176.218L1680.67 176.268L1684.15 202.728L1677.87 203.555Z"
            fill="white" />
        <path id="Vector_11"
            d="M1649.18 207.332L1643.04 160.694L1658.71 158.631L1659.64 165.674L1650.82 166.835L1652.47 179.399L1658.82 178.563L1659.72 185.416L1653.38 186.252L1655.1 199.386L1663.92 198.225L1664.85 205.268L1649.18 207.332Z"
            fill="white" />
        <path id="Vector_12"
            d="M1627.39 210.716C1625.45 210.973 1623.73 210.758 1622.24 210.071C1620.77 209.361 1619.58 208.292 1618.66 206.864C1617.76 205.433 1617.18 203.755 1616.93 201.83L1613.31 174.355C1613.06 172.452 1613.19 170.691 1613.71 169.074C1614.25 167.453 1615.15 166.109 1616.41 165.039C1617.67 163.97 1619.24 163.311 1621.12 163.064C1622.54 162.877 1623.84 162.974 1625.03 163.355C1626.22 163.737 1627.27 164.341 1628.17 165.169C1629.1 165.972 1629.85 166.96 1630.44 168.131C1631.02 169.281 1631.4 170.554 1631.58 171.95L1632.43 178.358L1626.02 179.202L1625.18 172.793C1625.05 171.82 1624.74 171.032 1624.25 170.43C1623.76 169.827 1623.05 169.587 1622.12 169.709C1621.28 169.821 1620.71 170.24 1620.42 170.967C1620.13 171.694 1620.04 172.523 1620.16 173.453L1623.78 200.928C1623.9 201.859 1624.21 202.636 1624.7 203.26C1625.21 203.881 1625.86 204.14 1626.64 204.037C1627.59 203.912 1628.22 203.496 1628.51 202.79C1628.83 202.082 1628.92 201.241 1628.79 200.268L1627.95 193.86L1634.36 193.016L1635.2 199.424C1635.45 201.328 1635.31 203.09 1634.77 204.71C1634.23 206.331 1633.33 207.675 1632.07 208.745C1630.84 209.811 1629.28 210.469 1627.39 210.716Z"
            fill="white" />
        <path id="Vector_13"
            d="M1597.45 214.658C1595.57 214.906 1593.96 214.806 1592.63 214.356C1591.3 213.886 1590.2 213.106 1589.32 212.016C1588.45 210.927 1587.74 209.567 1587.21 207.938C1586.69 206.306 1586.29 204.443 1586.02 202.349L1592.66 200.829C1592.79 201.844 1592.96 202.824 1593.14 203.767C1593.35 204.687 1593.6 205.515 1593.89 206.251C1594.2 206.963 1594.57 207.517 1595.01 207.911C1595.47 208.302 1596.01 208.457 1596.62 208.377C1597.64 208.243 1598.3 207.683 1598.6 206.697C1598.89 205.689 1598.96 204.519 1598.78 203.187C1598.61 201.854 1598.07 200.515 1597.19 199.168C1596.3 197.822 1595.28 196.568 1594.14 195.406C1592.2 193.423 1590.48 191.573 1588.99 189.855C1587.51 188.134 1586.31 186.41 1585.37 184.683C1584.45 182.953 1583.87 181.094 1583.6 179.106C1583.4 177.54 1583.41 176.076 1583.64 174.711C1583.86 173.326 1584.29 172.097 1584.93 171.024C1585.58 169.926 1586.42 169.031 1587.45 168.336C1588.47 167.641 1589.7 167.2 1591.11 167.014C1592.87 166.783 1594.39 166.884 1595.67 167.317C1596.98 167.748 1598.07 168.465 1598.96 169.467C1599.86 170.467 1600.59 171.706 1601.12 173.184C1601.68 174.638 1602.08 176.286 1602.32 178.126L1595.68 179.646C1595.58 178.863 1595.43 178.086 1595.25 177.315C1595.08 176.519 1594.85 175.806 1594.58 175.176C1594.3 174.545 1593.96 174.053 1593.54 173.698C1593.13 173.343 1592.64 173.204 1592.07 173.279C1591.18 173.396 1590.62 173.857 1590.38 174.663C1590.14 175.448 1590.11 176.528 1590.29 177.903C1590.52 179.679 1591.22 181.33 1592.39 182.855C1593.56 184.379 1595.09 186.135 1596.99 188.123C1599.26 190.471 1601.14 192.655 1602.63 194.675C1604.14 196.692 1605.07 199.023 1605.42 201.667C1605.64 203.337 1605.67 204.916 1605.5 206.401C1605.32 207.866 1604.92 209.178 1604.27 210.339C1603.65 211.497 1602.78 212.451 1601.65 213.202C1600.54 213.95 1599.14 214.436 1597.45 214.658Z"
            fill="white" />
        <path id="Vector_14"
            d="M1560.44 219.014L1554.3 172.376L1569.98 170.313L1570.91 177.356L1562.09 178.517L1563.74 191.081L1570.08 190.245L1570.99 197.098L1564.64 197.934L1566.37 211.068L1575.19 209.907L1576.12 216.95L1560.44 219.014Z"
            fill="white" />
        <path id="Vector_15"
            d="M1528.9 223.166L1522.76 176.529L1529.74 175.61C1531.94 175.32 1533.85 175.435 1535.47 175.953C1537.09 176.472 1538.48 177.537 1539.64 179.149C1540.79 180.761 1541.77 183.053 1542.57 186.024C1543.39 188.993 1544.11 192.783 1544.72 197.394C1545.33 202.026 1545.62 205.882 1545.59 208.962C1545.59 212.019 1545.23 214.475 1544.53 216.332C1543.83 218.168 1542.76 219.546 1541.33 220.465C1539.9 221.364 1538.08 221.958 1535.88 222.247L1528.9 223.166ZM1534.86 215.411C1536.55 215.188 1537.65 214.365 1538.18 212.94C1538.7 211.516 1538.87 209.557 1538.69 207.063C1538.52 204.568 1538.2 201.619 1537.76 198.213C1537.3 194.766 1536.84 191.836 1536.37 189.423C1535.9 186.989 1535.22 185.174 1534.33 183.978C1533.46 182.759 1532.19 182.259 1530.52 182.479L1534.86 215.411Z"
            fill="white" />
        <path id="Vector_16" d="M1509.01 225.785L1502.87 179.147L1509.73 178.245L1515.87 224.883L1509.01 225.785Z"
            fill="white" />
        <path id="Vector_17"
            d="M1478.4 229.815L1472.26 183.177L1479.12 182.275C1483.22 181.735 1486.39 182.479 1488.64 184.507C1490.88 186.514 1492.3 189.728 1492.88 194.148C1493.22 196.771 1493.06 199.106 1492.38 201.153C1491.72 203.176 1490.8 204.719 1489.6 205.779L1497.18 227.342L1490.33 228.244L1483.87 209.084L1482.67 209.242L1485.26 228.913L1478.4 229.815ZM1481.83 202.897C1483.1 202.73 1484.07 202.323 1484.74 201.675C1485.4 201.007 1485.82 200.134 1486 199.055C1486.19 197.977 1486.18 196.73 1486 195.312C1485.7 193.092 1485.11 191.438 1484.21 190.351C1483.34 189.24 1481.93 188.811 1480.01 189.064L1481.83 202.897Z"
            fill="white" />
        <path id="Vector_18" d="M1458.51 232.433L1452.37 185.796L1459.22 184.894L1465.36 231.531L1458.51 232.433Z"
            fill="white" />
        <path id="Vector_19" d="M1421.99 237.241L1421.07 230.198L1427.73 229.321L1428.66 236.364L1421.99 237.241Z"
            fill="white" />
        <path id="Vector_20"
            d="M1391.34 241.277L1385.2 194.639L1392.18 193.72C1394.38 193.431 1396.29 193.545 1397.91 194.064C1399.52 194.582 1400.91 195.648 1402.07 197.26C1403.23 198.871 1404.21 201.163 1405.01 204.135C1405.83 207.104 1406.55 210.894 1407.15 215.504C1407.76 220.136 1408.06 223.993 1408.03 227.073C1408.02 230.129 1407.67 232.586 1406.97 234.443C1406.26 236.278 1405.2 237.656 1403.77 238.576C1402.34 239.474 1400.52 240.068 1398.32 240.358L1391.34 241.277ZM1397.29 233.522C1398.98 233.299 1400.09 232.475 1400.61 231.051C1401.14 229.627 1401.31 227.667 1401.13 225.173C1400.95 222.679 1400.64 219.729 1400.19 216.324C1399.74 212.876 1399.28 209.946 1398.81 207.533C1398.34 205.099 1397.66 203.285 1396.77 202.089C1395.9 200.87 1394.63 200.37 1392.96 200.59L1397.29 233.522Z"
            fill="white" />
        <path id="Vector_21"
            d="M1369.56 244.661C1367.65 244.912 1365.95 244.684 1364.46 243.976C1362.99 243.266 1361.79 242.198 1360.85 240.773C1359.93 239.345 1359.34 237.679 1359.09 235.775L1355.47 208.3C1355.22 206.376 1355.35 204.615 1355.87 203.019C1356.41 201.398 1357.3 200.055 1358.54 198.988C1359.8 197.919 1361.38 197.259 1363.28 197.008C1365.19 196.758 1366.87 196.988 1368.34 197.698C1369.83 198.405 1371.04 199.473 1371.96 200.901C1372.9 202.326 1373.5 203.991 1373.75 205.895L1377.36 233.369C1377.61 235.273 1377.47 237.035 1376.93 238.655C1376.41 240.273 1375.52 241.616 1374.27 242.686C1373.03 243.752 1371.46 244.411 1369.56 244.661ZM1368.68 237.999C1369.52 237.887 1370.07 237.46 1370.32 236.718C1370.56 235.954 1370.63 235.139 1370.51 234.272L1366.89 206.797C1366.78 205.93 1366.5 205.171 1366.05 204.52C1365.59 203.848 1364.96 203.565 1364.16 203.671C1363.38 203.774 1362.84 204.21 1362.56 204.979C1362.29 205.725 1362.21 206.531 1362.33 207.398L1365.94 234.873C1366.06 235.74 1366.34 236.51 1366.8 237.182C1367.25 237.832 1367.87 238.105 1368.68 237.999Z"
            fill="white" />
        <path id="Vector_22"
            d="M1330.06 249.345L1323.92 202.707L1330.77 201.805C1334.87 201.265 1338.05 202.009 1340.3 204.037C1342.54 206.044 1343.95 209.258 1344.53 213.678C1344.88 216.301 1344.71 218.636 1344.04 220.683C1343.38 222.706 1342.45 224.249 1341.26 225.31L1348.84 246.872L1341.99 247.774L1335.53 228.614L1334.32 228.772L1336.91 248.443L1330.06 249.345ZM1333.49 222.427C1334.75 222.26 1335.72 221.853 1336.39 221.205C1337.06 220.537 1337.48 219.664 1337.66 218.585C1337.84 217.507 1337.84 216.26 1337.65 214.843C1337.36 212.622 1336.76 210.968 1335.87 209.881C1334.99 208.77 1333.59 208.341 1331.66 208.594L1333.49 222.427Z"
            fill="white" />
        <path id="Vector_23"
            d="M1299.82 253.326L1293.68 206.688L1300.53 205.786C1303.13 205.444 1305.38 205.729 1307.26 206.643C1309.17 207.554 1310.69 209 1311.83 210.979C1312.98 212.959 1313.74 215.366 1314.11 218.2C1314.48 221.034 1314.35 223.537 1313.71 225.709C1313.07 227.88 1311.95 229.663 1310.35 231.057C1308.76 232.428 1306.72 233.332 1304.22 233.769L1306.67 252.424L1299.82 253.326ZM1303.3 226.789C1304.5 226.63 1305.42 226.272 1306.06 225.715C1306.69 225.137 1307.09 224.31 1307.25 223.234C1307.43 222.156 1307.41 220.803 1307.2 219.174C1306.98 217.525 1306.65 216.202 1306.19 215.208C1305.76 214.21 1305.15 213.516 1304.37 213.124C1303.61 212.729 1302.64 212.61 1301.45 212.766L1303.3 226.789Z"
            fill="white" />
    </g>
    <text id="issue-text" transform="translate(1177.66 2394.59) rotate(-7.5)" fill="#16161D" style="white-space: pre"
        xml:space="preserve" font-family="Hanken Grotesk" font-size="192" font-weight="900" letter-spacing="0em">
        <tspan x="0" y="162.912">Issue #X</tspan>
    </text>
    <text id="argama-jp" transform="translate(371.717 2288.88) rotate(-7.5)" fill="var(--argama-text-color, #A8C8FF)"
        style="white-space: pre" xml:space="preserve" font-family="Mochiy Pop One" font-size="64" letter-spacing="0em">
        <tspan x="0" y="59.904">&#x30a2;&#x30fc;&#x30ac;&#x30de;</tspan>
    </text>
    <text id="character-name" transform="translate(382.797 2351.98) rotate(-7.5)"
        fill="var(--argama-text-color, #A8C8FF)" style="white-space: pre" xml:space="preserve"
        font-family="Mochiy Pop One" font-size="128" letter-spacing="0em">
        <tspan id="character-name-tspan" x="0" y="119.808">&#x5c04;&#x547d;&#x4e38;&#x6587;</tspan>
    </text>
    </g>
    <defs>
        <style>
            @import url('https://fonts.googleapis.com/css2?family=Mochiy+Pop+One&amp;display=swap');
        </style>
        <linearGradient id="paint0_linear_1064_7" x1="660.269" y1="404.453" x2="660.269" y2="2587.45"
            gradientUnits="userSpaceOnUse">
            <stop offset="0.668269" stop-color="#16161D" stop-opacity="0" />
            <stop offset="1" stop-color="#16161D" stop-opacity="0.5" />
        </linearGradient>
        <clipPath id="clip0_1064_7">
            <rect width="2100" height="2970" fill="white" />
        </clipPath>
    </defs>
</svg>